<svg width="29" height="28" viewBox="0 0 29 28" fill="none" xmlns="http://www.w3.org/2000/svg">
<mask id="mask0_66_89" style="mask-type:alpha" maskUnits="userSpaceOnUse" x="0" y="0" width="29" height="28">
<rect x="0.986816" width="28" height="28" fill="#D9D9D9"/>
</mask>
<g mask="url(#mask0_66_89)">
<path d="M10.3201 14C9.98959 14 9.71251 14.1118 9.4889 14.3354C9.26529 14.559 9.15348 14.8361 9.15348 15.1667V18.6667C9.15348 18.9972 9.26529 19.2743 9.4889 19.4979C9.71251 19.7215 9.98959 19.8333 10.3201 19.8333C10.6507 19.8333 10.9278 19.7215 11.1514 19.4979C11.375 19.2743 11.4868 18.9972 11.4868 18.6667V15.1667C11.4868 14.8361 11.375 14.559 11.1514 14.3354C10.9278 14.1118 10.6507 14 10.3201 14ZM19.6535 8.16667C19.3229 8.16667 19.0458 8.27847 18.8222 8.50208C18.5986 8.72569 18.4868 9.00278 18.4868 9.33333V18.6667C18.4868 18.9972 18.5986 19.2743 18.8222 19.4979C19.0458 19.7215 19.3229 19.8333 19.6535 19.8333C19.984 19.8333 20.2611 19.7215 20.4847 19.4979C20.7083 19.2743 20.8201 18.9972 20.8201 18.6667V9.33333C20.8201 9.00278 20.7083 8.72569 20.4847 8.50208C20.2611 8.27847 19.984 8.16667 19.6535 8.16667ZM14.9868 16.3333C14.6563 16.3333 14.3792 16.4451 14.1556 16.6687C13.932 16.8924 13.8201 17.1694 13.8201 17.5V18.6667C13.8201 18.9972 13.932 19.2743 14.1556 19.4979C14.3792 19.7215 14.6563 19.8333 14.9868 19.8333C15.3174 19.8333 15.5945 19.7215 15.8181 19.4979C16.0417 19.2743 16.1535 18.9972 16.1535 18.6667V17.5C16.1535 17.1694 16.0417 16.8924 15.8181 16.6687C15.5945 16.4451 15.3174 16.3333 14.9868 16.3333ZM6.82015 24.5C6.17848 24.5 5.62918 24.2715 5.17223 23.8146C4.71529 23.3576 4.48682 22.8083 4.48682 22.1667V5.83333C4.48682 5.19167 4.71529 4.64236 5.17223 4.18542C5.62918 3.72847 6.17848 3.5 6.82015 3.5H23.1535C23.7951 3.5 24.3445 3.72847 24.8014 4.18542C25.2583 4.64236 25.4868 5.19167 25.4868 5.83333V22.1667C25.4868 22.8083 25.2583 23.3576 24.8014 23.8146C24.3445 24.2715 23.7951 24.5 23.1535 24.5H6.82015ZM6.82015 22.1667H23.1535V5.83333H6.82015V22.1667ZM14.9868 14C15.3174 14 15.5945 13.8882 15.8181 13.6646C16.0417 13.441 16.1535 13.1639 16.1535 12.8333C16.1535 12.5028 16.0417 12.2257 15.8181 12.0021C15.5945 11.7785 15.3174 11.6667 14.9868 11.6667C14.6563 11.6667 14.3792 11.7785 14.1556 12.0021C13.932 12.2257 13.8201 12.5028 13.8201 12.8333C13.8201 13.1639 13.932 13.441 14.1556 13.6646C14.3792 13.8882 14.6563 14 14.9868 14Z" fill="white" fill-opacity="0.8"/>
</g>
</svg>
