<svg width="29" height="28" viewBox="0 0 29 28" fill="none" xmlns="http://www.w3.org/2000/svg">
<mask id="mask0_66_82" style="mask-type:alpha" maskUnits="userSpaceOnUse" x="0" y="0" width="29" height="28">
<rect x="0.986816" width="28" height="28" fill="#D9D9D9"/>
</mask>
<g mask="url(#mask0_66_82)">
<path d="M7.98682 19.8333L5.47848 22.3417C5.28404 22.5361 5.07015 22.5847 4.83682 22.4875C4.60348 22.3903 4.48682 22.2056 4.48682 21.9333V5.83333C4.48682 5.19167 4.71529 4.64236 5.17223 4.18542C5.62918 3.72847 6.17848 3.5 6.82015 3.5H20.8201C21.4618 3.5 22.0111 3.72847 22.4681 4.18542C22.925 4.64236 23.1535 5.19167 23.1535 5.83333V10.5292C23.1535 10.8597 23.0417 11.1319 22.8181 11.3458C22.5945 11.5597 22.3174 11.6667 21.9868 11.6667C21.6563 11.6667 21.3792 11.5549 21.1556 11.3313C20.932 11.1076 20.8201 10.8306 20.8201 10.5V5.83333H6.82015V17.5H13.8201C14.1507 17.5 14.4278 17.6118 14.6514 17.8354C14.875 18.059 14.9868 18.3361 14.9868 18.6667C14.9868 18.9972 14.875 19.2743 14.6514 19.4979C14.4278 19.7215 14.1507 19.8333 13.8201 19.8333H7.98682ZM10.3201 10.5H17.3201C17.6507 10.5 17.9278 10.3882 18.1514 10.1646C18.375 9.94097 18.4868 9.66389 18.4868 9.33333C18.4868 9.00278 18.375 8.72569 18.1514 8.50208C17.9278 8.27847 17.6507 8.16667 17.3201 8.16667H10.3201C9.98959 8.16667 9.71251 8.27847 9.4889 8.50208C9.26529 8.72569 9.15348 9.00278 9.15348 9.33333C9.15348 9.66389 9.26529 9.94097 9.4889 10.1646C9.71251 10.3882 9.98959 10.5 10.3201 10.5ZM10.3201 15.1667H13.8201C14.1507 15.1667 14.4278 15.0549 14.6514 14.8313C14.875 14.6076 14.9868 14.3306 14.9868 14C14.9868 13.6694 14.875 13.3924 14.6514 13.1688C14.4278 12.9451 14.1507 12.8333 13.8201 12.8333H10.3201C9.98959 12.8333 9.71251 12.9451 9.4889 13.1688C9.26529 13.3924 9.15348 13.6694 9.15348 14C9.15348 14.3306 9.26529 14.6076 9.4889 14.8313C9.71251 15.0549 9.98959 15.1667 10.3201 15.1667ZM20.8201 19.8333H18.4868C18.1563 19.8333 17.8792 19.7215 17.6556 19.4979C17.432 19.2743 17.3201 18.9972 17.3201 18.6667C17.3201 18.3361 17.432 18.059 17.6556 17.8354C17.8792 17.6118 18.1563 17.5 18.4868 17.5H20.8201V15.1667C20.8201 14.8361 20.932 14.559 21.1556 14.3354C21.3792 14.1118 21.6563 14 21.9868 14C22.3174 14 22.5945 14.1118 22.8181 14.3354C23.0417 14.559 23.1535 14.8361 23.1535 15.1667V17.5H25.4868C25.8174 17.5 26.0945 17.6118 26.3181 17.8354C26.5417 18.059 26.6535 18.3361 26.6535 18.6667C26.6535 18.9972 26.5417 19.2743 26.3181 19.4979C26.0945 19.7215 25.8174 19.8333 25.4868 19.8333H23.1535V22.1667C23.1535 22.4972 23.0417 22.7743 22.8181 22.9979C22.5945 23.2215 22.3174 23.3333 21.9868 23.3333C21.6563 23.3333 21.3792 23.2215 21.1556 22.9979C20.932 22.7743 20.8201 22.4972 20.8201 22.1667V19.8333Z" fill="white" fill-opacity="0.8"/>
</g>
</svg>
