<svg width="25" height="25" viewBox="0 0 25 25" fill="none" xmlns="http://www.w3.org/2000/svg">
<mask id="mask0_15_30550" style="mask-type:alpha" maskUnits="userSpaceOnUse" x="0" y="0" width="25" height="25">
<rect x="0.321533" y="0.5" width="24" height="24" fill="#D9D9D9"/>
</mask>
<g mask="url(#mask0_15_30550)">
<path d="M9.87153 15.65L18.3465 7.175C18.5465 6.975 18.7799 6.875 19.0465 6.875C19.3132 6.875 19.5465 6.975 19.7465 7.175C19.9465 7.375 20.0465 7.6125 20.0465 7.8875C20.0465 8.1625 19.9465 8.4 19.7465 8.6L10.5715 17.8C10.3715 18 10.1382 18.1 9.87153 18.1C9.60486 18.1 9.37153 18 9.17153 17.8L4.87153 13.5C4.67153 13.3 4.57569 13.0625 4.58403 12.7875C4.59236 12.5125 4.69653 12.275 4.89653 12.075C5.09653 11.875 5.33403 11.775 5.60903 11.775C5.88403 11.775 6.12153 11.875 6.32153 12.075L9.87153 15.65Z" fill="white" fill-opacity="0.8"/>
</g>
</svg>
