<svg width="25" height="25" viewBox="0 0 25 25" fill="none" xmlns="http://www.w3.org/2000/svg">
<mask id="mask0_44_36669" style="mask-type:alpha" maskUnits="userSpaceOnUse" x="0" y="0" width="25" height="25">
<rect x="0.293823" y="0.921875" width="24" height="24" fill="#D9D9D9"/>
</mask>
<g mask="url(#mask0_44_36669)">
<path d="M4.71882 22.9218C4.41882 22.9218 4.17298 22.8218 3.98132 22.6218C3.78965 22.4218 3.69382 22.1884 3.69382 21.9218C3.69382 21.7884 3.71882 21.6634 3.76882 21.5468C3.81882 21.4301 3.89382 21.3218 3.99382 21.2218L20.5938 4.62178C20.6938 4.52178 20.8022 4.44678 20.9188 4.39678C21.0355 4.34678 21.1605 4.32178 21.2938 4.32178C21.5605 4.32178 21.7938 4.41761 21.9938 4.60928C22.1938 4.80094 22.2938 5.04678 22.2938 5.34678V21.4218C22.2938 21.8384 22.148 22.1926 21.8563 22.4843C21.5647 22.7759 21.2105 22.9218 20.7938 22.9218H4.71882Z" fill="white" fill-opacity="0.8"/>
</g>
</svg>
