<svg width="49" height="48" viewBox="0 0 49 48" fill="none" xmlns="http://www.w3.org/2000/svg">
<rect x="0.986816" y="48" width="48" height="48" rx="24" transform="rotate(-90 0.986816 48)" fill="url(#paint0_linear_12_28982)"/>
<path d="M14.3862 25.2001C14.3864 27.256 14.9958 29.2657 16.1376 30.9754C17.2793 32.685 18.9022 34.0179 20.8012 34.8057C22.7001 35.5935 24.79 35.8008 26.8067 35.4013C28.8234 35.0019 30.6765 34.0138 32.1318 32.5617C32.3572 32.3368 32.6626 32.2106 32.981 32.2109C33.2993 32.2112 33.6045 32.338 33.8294 32.5633C34.0543 32.7886 34.1805 33.0941 34.1802 33.4124C34.1799 33.7308 34.0532 34.036 33.8278 34.2609C32.372 35.7136 30.5875 36.7941 28.6255 37.4108C26.6635 38.0276 24.5817 38.1626 22.5565 37.8042C20.5313 37.4458 18.6223 36.6048 16.9911 35.3522C15.3599 34.0996 14.0545 32.4724 13.1855 30.6083C12.3165 28.7443 11.9095 26.6983 11.9989 24.6435C12.0883 22.5888 12.6715 20.5859 13.6992 18.8044C14.7268 17.0229 16.1686 15.5152 17.9024 14.409C19.6363 13.3029 21.6112 12.6308 23.6598 12.4497C22.6926 13.118 22.0038 14.1175 21.7238 15.2593C19.5991 15.9148 17.7402 17.2337 16.4197 19.0226C15.0992 20.8116 14.3866 22.9766 14.3862 25.2001ZM21.7878 17.7809C20.0683 18.4786 18.6447 19.7521 17.7605 21.3836C16.8763 23.015 16.5866 24.9031 16.9408 26.7246C17.295 28.5461 18.2712 30.188 19.7023 31.3692C21.1334 32.5504 22.9306 33.1977 24.7862 33.2001C26.9894 33.2001 28.9878 32.3073 30.4342 30.8673C30.6598 30.6424 30.7867 30.3371 30.7872 30.0186C30.7876 29.7001 30.6615 29.3944 30.4366 29.1689C30.2117 28.9434 29.9064 28.8164 29.5879 28.816C29.2694 28.8155 28.9638 28.9416 28.7382 29.1665C28.1383 29.764 27.4108 30.2176 26.6103 30.4933C25.8099 30.7691 24.9573 30.8597 24.1167 30.7585C23.2762 30.6572 22.4695 30.3667 21.7574 29.9087C21.0453 29.4507 20.4463 28.8373 20.0055 28.1145C19.5647 27.3917 19.2935 26.5783 19.2123 25.7356C19.1311 24.8928 19.2421 24.0427 19.5369 23.249C19.8316 22.4553 20.3025 21.7388 20.9141 21.1534C21.5257 20.5679 22.2621 20.1287 23.0678 19.8689C22.4678 19.2953 22.0268 18.5759 21.7878 17.7809ZM24.7862 28.4001C23.9375 28.4001 23.1236 28.063 22.5235 27.4628C21.9234 26.8627 21.5862 26.0488 21.5862 25.2001C21.5862 24.3514 21.9234 23.5375 22.5235 22.9374C23.1236 22.3373 23.9375 22.0001 24.7862 22.0001C25.6349 22.0001 26.4489 22.3373 27.049 22.9374C27.6491 23.5375 27.9862 24.3514 27.9862 25.2001C27.9862 26.0488 27.6491 26.8627 27.049 27.4628C26.4489 28.063 25.6349 28.4001 24.7862 28.4001ZM26.3862 13.2001C27.2349 13.2001 28.0489 13.5373 28.649 14.1374C29.2491 14.7375 29.5862 15.5514 29.5862 16.4001C29.5862 17.2488 29.2491 18.0627 28.649 18.6628C28.0489 19.263 27.2349 19.6001 26.3862 19.6001C25.5375 19.6001 24.7236 19.263 24.1235 18.6628C23.5234 18.0627 23.1862 17.2488 23.1862 16.4001C23.1862 15.5514 23.5234 14.7375 24.1235 14.1374C24.7236 13.5373 25.5375 13.2001 26.3862 13.2001ZM33.5862 10.8001C35.5782 10.8001 37.5862 12.4001 37.5862 16.4001C37.5862 20.4001 35.5862 22.0001 33.5862 22.0001C32.9497 22.0001 32.3393 21.7473 31.8892 21.2972C31.4391 20.8471 31.1862 20.2366 31.1862 19.6001V13.2001C31.1862 12.5636 31.4391 11.9531 31.8892 11.5031C32.3393 11.053 32.9497 10.8001 33.5862 10.8001Z" fill="white"/>
<defs>
<linearGradient id="paint0_linear_12_28982" x1="48.9868" y1="72.6857" x2="0.986817" y2="72.6857" gradientUnits="userSpaceOnUse">
<stop stop-color="#3B9673"/>
<stop offset="1" stop-color="#1CCCC4"/>
</linearGradient>
</defs>
</svg>
