<svg width="25" height="25" viewBox="0 0 25 25" fill="none" xmlns="http://www.w3.org/2000/svg">
<mask id="mask0_44_36668" style="mask-type:alpha" maskUnits="userSpaceOnUse" x="0" y="0" width="25" height="25">
<rect x="0.45166" y="0.921875" width="24" height="24" fill="#D9D9D9"/>
</mask>
<g mask="url(#mask0_44_36668)">
<path d="M7.27666 20.9219H17.6267L12.4517 15.7469L7.27666 20.9219ZM4.87666 22.9219C4.42666 22.9219 4.11416 22.7177 3.93916 22.3094C3.76416 21.901 3.83499 21.5385 4.15166 21.2219L11.0517 14.3218L3.55166 6.84685C3.35166 6.66352 3.25582 6.43435 3.26416 6.15935C3.27249 5.88435 3.36832 5.64685 3.55166 5.44685C3.75166 5.24685 3.98916 5.14685 4.26416 5.14685C4.53916 5.14685 4.77666 5.24685 4.97666 5.44685L21.9517 22.4219C22.1517 22.6219 22.2475 22.8552 22.2392 23.1219C22.2308 23.3885 22.1267 23.6219 21.9267 23.8219C21.7267 24.0052 21.4933 24.101 21.2267 24.1094C20.96 24.1177 20.7267 24.0219 20.5267 23.8219L19.6267 22.9219H4.87666ZM22.4517 5.34685V17.6969C22.4517 18.0302 22.3475 18.2802 22.1392 18.4469C21.9308 18.6135 21.7017 18.6969 21.4517 18.6969C21.2017 18.6969 20.9725 18.6094 20.7642 18.4344C20.5558 18.2594 20.4517 18.0052 20.4517 17.6719V7.74685L15.9767 12.2218C15.7933 12.4052 15.5642 12.4969 15.2892 12.4969C15.0142 12.4969 14.7767 12.4052 14.5767 12.2218C14.3767 12.0219 14.2767 11.7843 14.2767 11.5093C14.2767 11.2343 14.3767 10.9968 14.5767 10.7968L20.7517 4.62185C21.0683 4.30518 21.4308 4.23435 21.8392 4.40935C22.2475 4.58435 22.4517 4.89685 22.4517 5.34685Z" fill="white" fill-opacity="0.8"/>
</g>
</svg>
