<svg width="22" height="22" viewBox="0 0 22 22" fill="none" xmlns="http://www.w3.org/2000/svg">
<path d="M4.58333 2.75L17.4167 2.75C17.9029 2.75 18.3692 2.94315 18.713 3.28697C19.0568 3.63079 19.25 4.0971 19.25 4.58333L19.25 17.4167C19.25 17.9029 19.0568 18.3692 18.713 18.713C18.3692 19.0568 17.9029 19.25 17.4167 19.25L4.58333 19.25C4.0971 19.25 3.63079 19.0568 3.28697 18.713C2.94315 18.3692 2.75 17.9029 2.75 17.4167L2.75 4.58333C2.75 4.0971 2.94315 3.63079 3.28697 3.28697C3.63079 2.94315 4.0971 2.75 4.58333 2.75ZM11 15.5833L15.5833 11H12.8333L12.8333 7.33333L9.16667 7.33333V11H6.41667L11 15.5833Z" fill="#D24B4B"/>
</svg>
