<svg width="20" height="22" viewBox="0 0 20 22" fill="none" xmlns="http://www.w3.org/2000/svg">
<path d="M7.94513 19.4583V14.5583L3.68679 17.0083C3.20068 17.2806 2.6854 17.3486 2.14096 17.2125C1.59652 17.0764 1.18818 16.7556 0.91596 16.25C0.643738 15.7639 0.575682 15.2486 0.711793 14.7042C0.847904 14.1597 1.15902 13.7514 1.64513 13.4792L5.90346 11L1.64513 8.55C1.15902 8.27778 0.847904 7.86458 0.711793 7.31042C0.575682 6.75625 0.643738 6.23611 0.91596 5.75C1.18818 5.26389 1.59652 4.95278 2.14096 4.81667C2.6854 4.68056 3.20068 4.74861 3.68679 5.02083L7.94513 7.47083V2.54167C7.94513 1.97778 8.14443 1.49653 8.54304 1.09792C8.94166 0.699306 9.4229 0.5 9.98679 0.5C10.5507 0.5 11.0319 0.699306 11.4305 1.09792C11.8292 1.49653 12.0285 1.97778 12.0285 2.54167V7.47083L16.2868 5.02083C16.7729 4.74861 17.2882 4.68056 17.8326 4.81667C18.3771 4.95278 18.7854 5.26389 19.0576 5.75C19.3298 6.23611 19.393 6.75625 19.2472 7.31042C19.1014 7.86458 18.7854 8.27778 18.2993 8.55L14.0701 11L18.3285 13.4792C18.8146 13.7514 19.1257 14.1597 19.2618 14.7042C19.3979 15.2486 19.3298 15.7736 19.0576 16.2792C18.7854 16.7653 18.3771 17.0764 17.8326 17.2125C17.2882 17.3486 16.7729 17.2806 16.2868 17.0083L12.0285 14.5583V19.4583C12.0285 20.0222 11.8292 20.5035 11.4305 20.9021C11.0319 21.3007 10.5507 21.5 9.98679 21.5C9.4229 21.5 8.94166 21.3007 8.54304 20.9021C8.14443 20.5035 7.94513 20.0222 7.94513 19.4583Z" fill="white" fill-opacity="0.8"/>
</svg>
