<svg width="25" height="25" viewBox="0 0 25 25" fill="none" xmlns="http://www.w3.org/2000/svg">
<mask id="mask0_11_32242" style="mask-type:alpha" maskUnits="userSpaceOnUse" x="0" y="0" width="25" height="25">
<rect x="0.120361" y="0.5" width="24" height="24" fill="#D9D9D9"/>
</mask>
<g mask="url(#mask0_11_32242)">
<path d="M10.3704 19.75V15.55L6.72036 17.65C6.3037 17.8833 5.86203 17.9417 5.39536 17.825C4.9287 17.7083 4.5787 17.4333 4.34536 17C4.11203 16.5833 4.0537 16.1417 4.17036 15.675C4.28703 15.2083 4.5537 14.8583 4.97036 14.625L8.62036 12.5L4.97036 10.4C4.5537 10.1667 4.28703 9.8125 4.17036 9.3375C4.0537 8.8625 4.11203 8.41667 4.34536 8C4.5787 7.58333 4.9287 7.31667 5.39536 7.2C5.86203 7.08333 6.3037 7.14167 6.72036 7.375L10.3704 9.475V5.25C10.3704 4.76667 10.5412 4.35417 10.8829 4.0125C11.2245 3.67083 11.637 3.5 12.1204 3.5C12.6037 3.5 13.0162 3.67083 13.3579 4.0125C13.6995 4.35417 13.8704 4.76667 13.8704 5.25V9.475L17.5204 7.375C17.937 7.14167 18.3787 7.08333 18.8454 7.2C19.312 7.31667 19.662 7.58333 19.8954 8C20.1287 8.41667 20.1829 8.8625 20.0579 9.3375C19.9329 9.8125 19.662 10.1667 19.2454 10.4L15.6204 12.5L19.2704 14.625C19.687 14.8583 19.9537 15.2083 20.0704 15.675C20.187 16.1417 20.1287 16.5917 19.8954 17.025C19.662 17.4417 19.312 17.7083 18.8454 17.825C18.3787 17.9417 17.937 17.8833 17.5204 17.65L13.8704 15.55V19.75C13.8704 20.2333 13.6995 20.6458 13.3579 20.9875C13.0162 21.3292 12.6037 21.5 12.1204 21.5C11.637 21.5 11.2245 21.3292 10.8829 20.9875C10.5412 20.6458 10.3704 20.2333 10.3704 19.75Z" fill="white" fill-opacity="0.8"/>
</g>
</svg>
