<svg width="25" height="20" viewBox="0 0 25 20" fill="none" xmlns="http://www.w3.org/2000/svg">
<path d="M10.581 1.66667C9.49192 1.66667 8.61866 2.40834 8.61866 3.33334V5.83334C8.61866 6.75834 9.49192 7.5 10.581 7.5H11.5622V9.16667H2.73157V10.8333H6.6563V12.5H5.67512C4.586 12.5 3.71275 13.2417 3.71275 14.1667V16.6667C3.71275 17.5917 4.586 18.3333 5.67512 18.3333H9.59985C10.689 18.3333 11.5622 17.5917 11.5622 16.6667V14.1667C11.5622 13.2417 10.689 12.5 9.59985 12.5H8.61866V10.8333H16.4681V12.5H15.4869C14.3978 12.5 13.5246 13.2417 13.5246 14.1667V16.6667C13.5246 17.5917 14.3978 18.3333 15.4869 18.3333H19.4117C20.5008 18.3333 21.374 17.5917 21.374 16.6667V14.1667C21.374 13.2417 20.5008 12.5 19.4117 12.5H18.4305V10.8333H22.3552V9.16667H13.5246V7.5H14.5058C15.5949 7.5 16.4681 6.75834 16.4681 5.83334V3.33334C16.4681 2.40834 15.5949 1.66667 14.5058 1.66667H10.581ZM10.581 3.33334H14.5058V5.83334H10.581V3.33334ZM5.67512 14.1667H9.59985V16.6667H5.67512V14.1667ZM15.4869 14.1667H19.4117V16.6667H15.4869V14.1667Z" fill="white"/>
</svg>
