<svg width="29" height="28" viewBox="0 0 29 28" fill="none" xmlns="http://www.w3.org/2000/svg">
<mask id="mask0_59_75" style="mask-type:alpha" maskUnits="userSpaceOnUse" x="0" y="0" width="29" height="28">
<rect x="0.986816" width="28" height="28" fill="#D9D9D9"/>
</mask>
<g mask="url(#mask0_59_75)">
<path d="M25.4868 24.0333C25.3313 24.0333 25.1854 24.0041 25.0493 23.9458C24.9132 23.8874 24.7868 23.7999 24.6702 23.6833L21.9868 20.9999H10.3202C9.67849 20.9999 9.12919 20.7714 8.67224 20.3145C8.2153 19.8576 7.98683 19.3083 7.98683 18.6666V17.4999H20.8202C21.4618 17.4999 22.0111 17.2714 22.4681 16.8145C22.925 16.3576 23.1535 15.8083 23.1535 15.1666V6.99992H24.3202C24.9618 6.99992 25.5111 7.22839 25.9681 7.68534C26.425 8.14228 26.6535 8.69159 26.6535 9.33325V22.8374C26.6535 23.1874 26.5368 23.4742 26.3035 23.6978C26.0702 23.9214 25.7979 24.0333 25.4868 24.0333ZM5.65349 14.2041L7.02433 12.8333H18.4868V4.66659H5.65349V14.2041ZM4.48683 18.1999C4.17572 18.1999 3.90349 18.0881 3.67016 17.8645C3.43683 17.6409 3.32016 17.3541 3.32016 17.0041V4.66659C3.32016 4.02492 3.54863 3.47561 4.00558 3.01867C4.46252 2.56172 5.01183 2.33325 5.65349 2.33325H18.4868C19.1285 2.33325 19.6778 2.56172 20.1347 3.01867C20.5917 3.47561 20.8202 4.02492 20.8202 4.66659V12.8333C20.8202 13.4749 20.5917 14.0242 20.1347 14.4812C19.6778 14.9381 19.1285 15.1666 18.4868 15.1666H7.98683L5.30349 17.8499C5.18683 17.9666 5.06044 18.0541 4.92433 18.1124C4.78822 18.1708 4.64238 18.1999 4.48683 18.1999Z" fill="white" fill-opacity="0.8"/>
</g>
</svg>
