<svg width="25" height="25" viewBox="0 0 25 25" fill="none" xmlns="http://www.w3.org/2000/svg">
<mask id="mask0_11_32146" style="mask-type:alpha" maskUnits="userSpaceOnUse" x="0" y="0" width="25" height="25">
<rect x="0.120361" y="0.5" width="24" height="24" fill="#D9D9D9"/>
</mask>
<g mask="url(#mask0_11_32146)">
<path d="M13.1204 21.5C12.837 21.5 12.5995 21.4042 12.4079 21.2125C12.2162 21.0208 12.1204 20.7833 12.1204 20.5C12.1204 20.2167 12.2162 19.9792 12.4079 19.7875C12.5995 19.5958 12.837 19.5 13.1204 19.5H19.1204V5.5H13.1204C12.837 5.5 12.5995 5.40417 12.4079 5.2125C12.2162 5.02083 12.1204 4.78333 12.1204 4.5C12.1204 4.21667 12.2162 3.97917 12.4079 3.7875C12.5995 3.59583 12.837 3.5 13.1204 3.5H19.1204C19.6704 3.5 20.1412 3.69583 20.5329 4.0875C20.9245 4.47917 21.1204 4.95 21.1204 5.5V19.5C21.1204 20.05 20.9245 20.5208 20.5329 20.9125C20.1412 21.3042 19.6704 21.5 19.1204 21.5H13.1204ZM11.2954 13.5H4.12036C3.83703 13.5 3.59953 13.4042 3.40786 13.2125C3.21619 13.0208 3.12036 12.7833 3.12036 12.5C3.12036 12.2167 3.21619 11.9792 3.40786 11.7875C3.59953 11.5958 3.83703 11.5 4.12036 11.5H11.2954L9.42036 9.625C9.23703 9.44167 9.14536 9.21667 9.14536 8.95C9.14536 8.68333 9.23703 8.45 9.42036 8.25C9.60369 8.05 9.83703 7.94583 10.1204 7.9375C10.4037 7.92917 10.6454 8.025 10.8454 8.225L14.4204 11.8C14.6204 12 14.7204 12.2333 14.7204 12.5C14.7204 12.7667 14.6204 13 14.4204 13.2L10.8454 16.775C10.6454 16.975 10.4079 17.0708 10.1329 17.0625C9.85786 17.0542 9.62036 16.95 9.42036 16.75C9.23703 16.55 9.14953 16.3125 9.15786 16.0375C9.16619 15.7625 9.26203 15.5333 9.44536 15.35L11.2954 13.5Z" fill="white" fill-opacity="0.8"/>
</g>
</svg>
