<svg width="21" height="18" viewBox="0 0 21 18" fill="none" xmlns="http://www.w3.org/2000/svg">
<path d="M6.98682 18C6.43682 18 5.96598 17.8042 5.57432 17.4125C5.18265 17.0208 4.98682 16.55 4.98682 16V14H2.98682C2.43682 14 1.96598 13.8042 1.57432 13.4125C1.18265 13.0208 0.986816 12.55 0.986816 12V8C0.986816 7.15 1.27848 6.4375 1.86182 5.8625C2.44515 5.2875 3.15348 5 3.98682 5H17.9868C18.8368 5 19.5493 5.2875 20.1243 5.8625C20.6993 6.4375 20.9868 7.15 20.9868 8V12C20.9868 12.55 20.791 13.0208 20.3993 13.4125C20.0077 13.8042 19.5368 14 18.9868 14H16.9868V16C16.9868 16.55 16.791 17.0208 16.3993 17.4125C16.0077 17.8042 15.5368 18 14.9868 18H6.98682ZM2.98682 12H4.98682C4.98682 11.45 5.18265 10.9792 5.57432 10.5875C5.96598 10.1958 6.43682 10 6.98682 10H14.9868C15.5368 10 16.0077 10.1958 16.3993 10.5875C16.791 10.9792 16.9868 11.45 16.9868 12H18.9868V8C18.9868 7.71667 18.891 7.47917 18.6993 7.2875C18.5076 7.09583 18.2701 7 17.9868 7H3.98682C3.70348 7 3.46598 7.09583 3.27432 7.2875C3.08265 7.47917 2.98682 7.71667 2.98682 8V12ZM14.9868 5V2H6.98682V5H4.98682V2C4.98682 1.45 5.18265 0.979167 5.57432 0.5875C5.96598 0.195833 6.43682 0 6.98682 0H14.9868C15.5368 0 16.0077 0.195833 16.3993 0.5875C16.791 0.979167 16.9868 1.45 16.9868 2V5H14.9868ZM16.9868 9.5C17.2701 9.5 17.5076 9.40417 17.6993 9.2125C17.891 9.02083 17.9868 8.78333 17.9868 8.5C17.9868 8.21667 17.891 7.97917 17.6993 7.7875C17.5076 7.59583 17.2701 7.5 16.9868 7.5C16.7035 7.5 16.466 7.59583 16.2743 7.7875C16.0827 7.97917 15.9868 8.21667 15.9868 8.5C15.9868 8.78333 16.0827 9.02083 16.2743 9.2125C16.466 9.40417 16.7035 9.5 16.9868 9.5ZM14.9868 16V12H6.98682V16H14.9868Z" fill="white" fill-opacity="0.8"/>
</svg>
