<svg width="25" height="25" viewBox="0 0 25 25" fill="none" xmlns="http://www.w3.org/2000/svg">
<mask id="mask0_11_32244" style="mask-type:alpha" maskUnits="userSpaceOnUse" x="0" y="0" width="25" height="25">
<rect x="0.120361" y="0.5" width="24" height="24" fill="#D9D9D9"/>
</mask>
<g mask="url(#mask0_11_32244)">
<path d="M8.12036 21.5C7.57036 21.5 7.09953 21.3042 6.70786 20.9125C6.31619 20.5208 6.12036 20.05 6.12036 19.5V17.5H4.12036C3.57036 17.5 3.09953 17.3042 2.70786 16.9125C2.31619 16.5208 2.12036 16.05 2.12036 15.5V11.5C2.12036 10.65 2.41203 9.9375 2.99536 9.3625C3.57869 8.7875 4.28703 8.5 5.12036 8.5H19.1204C19.9704 8.5 20.6829 8.7875 21.2579 9.3625C21.8329 9.9375 22.1204 10.65 22.1204 11.5V15.5C22.1204 16.05 21.9245 16.5208 21.5329 16.9125C21.1412 17.3042 20.6704 17.5 20.1204 17.5H18.1204V19.5C18.1204 20.05 17.9245 20.5208 17.5329 20.9125C17.1412 21.3042 16.6704 21.5 16.1204 21.5H8.12036ZM4.12036 15.5H6.12036C6.12036 14.95 6.31619 14.4792 6.70786 14.0875C7.09953 13.6958 7.57036 13.5 8.12036 13.5H16.1204C16.6704 13.5 17.1412 13.6958 17.5329 14.0875C17.9245 14.4792 18.1204 14.95 18.1204 15.5H20.1204V11.5C20.1204 11.2167 20.0245 10.9792 19.8329 10.7875C19.6412 10.5958 19.4037 10.5 19.1204 10.5H5.12036C4.83703 10.5 4.59953 10.5958 4.40786 10.7875C4.21619 10.9792 4.12036 11.2167 4.12036 11.5V15.5ZM16.1204 8.5V5.5H8.12036V8.5H6.12036V5.5C6.12036 4.95 6.31619 4.47917 6.70786 4.0875C7.09953 3.69583 7.57036 3.5 8.12036 3.5H16.1204C16.6704 3.5 17.1412 3.69583 17.5329 4.0875C17.9245 4.47917 18.1204 4.95 18.1204 5.5V8.5H16.1204ZM18.1204 13C18.4037 13 18.6412 12.9042 18.8329 12.7125C19.0245 12.5208 19.1204 12.2833 19.1204 12C19.1204 11.7167 19.0245 11.4792 18.8329 11.2875C18.6412 11.0958 18.4037 11 18.1204 11C17.837 11 17.5995 11.0958 17.4079 11.2875C17.2162 11.4792 17.1204 11.7167 17.1204 12C17.1204 12.2833 17.2162 12.5208 17.4079 12.7125C17.5995 12.9042 17.837 13 18.1204 13ZM16.1204 19.5V15.5H8.12036V19.5H16.1204Z" fill="white" fill-opacity="0.8"/>
</g>
</svg>
