<svg width="29" height="28" viewBox="0 0 29 28" fill="none" xmlns="http://www.w3.org/2000/svg">
<mask id="mask0_66_103" style="mask-type:alpha" maskUnits="userSpaceOnUse" x="0" y="0" width="29" height="28">
<rect x="0.986816" width="28" height="28" fill="#D9D9D9"/>
</mask>
<g mask="url(#mask0_66_103)">
<path d="M13.616 25.6666C13.091 25.6666 12.6389 25.4916 12.2597 25.1416C11.8805 24.7916 11.6521 24.3638 11.5743 23.8583L11.3118 21.9333C11.059 21.836 10.8208 21.7194 10.5972 21.5833C10.3736 21.4471 10.1548 21.3013 9.94096 21.1458L8.13263 21.9041C7.64652 22.118 7.1604 22.1374 6.67429 21.9624C6.18818 21.7874 5.80902 21.4763 5.53679 21.0291L4.16596 18.6374C3.89374 18.1902 3.81596 17.7138 3.93263 17.2083C4.04929 16.7027 4.31179 16.2846 4.72013 15.9541L6.26596 14.7874C6.24652 14.6513 6.23679 14.5201 6.23679 14.3937V13.6062C6.23679 13.4798 6.24652 13.3485 6.26596 13.2124L4.72013 12.0458C4.31179 11.7152 4.04929 11.2971 3.93263 10.7916C3.81596 10.286 3.89374 9.80964 4.16596 9.36242L5.53679 6.97075C5.80902 6.52353 6.18818 6.21242 6.67429 6.03742C7.1604 5.86242 7.64652 5.88186 8.13263 6.09575L9.94096 6.85408C10.1548 6.69853 10.3785 6.5527 10.6118 6.41658C10.8451 6.28047 11.0785 6.16381 11.3118 6.06659L11.5743 4.14159C11.6521 3.63603 11.8805 3.20825 12.2597 2.85825C12.6389 2.50825 13.091 2.33325 13.616 2.33325H16.3576C16.8826 2.33325 17.3347 2.50825 17.7139 2.85825C18.093 3.20825 18.3215 3.63603 18.3993 4.14159L18.6618 6.06659C18.9146 6.16381 19.1528 6.28047 19.3764 6.41658C19.6 6.5527 19.8187 6.69853 20.0326 6.85408L21.841 6.09575C22.3271 5.88186 22.8132 5.86242 23.2993 6.03742C23.7854 6.21242 24.1646 6.52353 24.4368 6.97075L25.8076 9.36242C26.0798 9.80964 26.1576 10.286 26.041 10.7916C25.9243 11.2971 25.6618 11.7152 25.2535 12.0458L23.7076 13.2124C23.7271 13.3485 23.7368 13.4798 23.7368 13.6062V14.3937C23.7368 14.5201 23.7173 14.6513 23.6785 14.7874L25.2243 15.9541C25.6326 16.2846 25.8951 16.7027 26.0118 17.2083C26.1285 17.7138 26.0507 18.1902 25.7785 18.6374L24.3785 21.0291C24.1062 21.4763 23.7271 21.7874 23.241 21.9624C22.7548 22.1374 22.2687 22.118 21.7826 21.9041L20.0326 21.1458C19.8187 21.3013 19.5951 21.4471 19.3618 21.5833C19.1285 21.7194 18.8951 21.836 18.6618 21.9333L18.3993 23.8583C18.3215 24.3638 18.093 24.7916 17.7139 25.1416C17.3347 25.4916 16.8826 25.6666 16.3576 25.6666H13.616ZM13.8201 23.3333H16.1243L16.5326 20.2416C17.1354 20.086 17.6944 19.8576 18.2097 19.5562C18.725 19.2548 19.1965 18.8902 19.6243 18.4624L22.5118 19.6583L23.6493 17.6749L21.141 15.7791C21.2382 15.5069 21.3062 15.2201 21.3451 14.9187C21.384 14.6173 21.4035 14.311 21.4035 13.9999C21.4035 13.6888 21.384 13.3826 21.3451 13.0812C21.3062 12.7798 21.2382 12.493 21.141 12.2208L23.6493 10.3249L22.5118 8.34159L19.6243 9.56659C19.1965 9.11936 18.725 8.74506 18.2097 8.44367C17.6944 8.14228 17.1354 7.91381 16.5326 7.75825L16.1535 4.66659H13.8493L13.441 7.75825C12.8382 7.91381 12.2792 8.14228 11.7639 8.44367C11.2486 8.74506 10.7771 9.10964 10.3493 9.53742L7.46179 8.34159L6.32429 10.3249L8.83263 12.1916C8.7354 12.4833 8.66735 12.7749 8.62846 13.0666C8.58957 13.3583 8.57013 13.6694 8.57013 13.9999C8.57013 14.311 8.58957 14.6124 8.62846 14.9041C8.66735 15.1958 8.7354 15.4874 8.83263 15.7791L6.32429 17.6749L7.46179 19.6583L10.3493 18.4333C10.7771 18.8805 11.2486 19.2548 11.7639 19.5562C12.2792 19.8576 12.8382 20.086 13.441 20.2416L13.8201 23.3333ZM15.0451 18.0833C16.1729 18.0833 17.1354 17.6846 17.9326 16.8874C18.7298 16.0902 19.1285 15.1277 19.1285 13.9999C19.1285 12.8721 18.7298 11.9096 17.9326 11.1124C17.1354 10.3152 16.1729 9.91658 15.0451 9.91658C13.8979 9.91658 12.9305 10.3152 12.143 11.1124C11.3555 11.9096 10.9618 12.8721 10.9618 13.9999C10.9618 15.1277 11.3555 16.0902 12.143 16.8874C12.9305 17.6846 13.8979 18.0833 15.0451 18.0833Z" fill="white" fill-opacity="0.8"/>
</g>
</svg>
